solid OpenSCAD_Model
  facet normal -1 0 0
    outer loop
      vertex 0 0 0
      vertex 0 39.8 80
      vertex 0 39.8 0
    endloop
  endfacet
  facet normal -1 -0 0
    outer loop
      vertex 0 39.8 80
      vertex 0 0 0
      vertex 0 0 80
    endloop
  endfacet
  facet normal 0 0 1
    outer loop
      vertex 38 2 50
      vertex 39.8 39.8 50
      vertex 38 38 50
    endloop
  endfacet
  facet normal -0 0 1
    outer loop
      vertex 2 39.8 50
      vertex 38 38 50
      vertex 39.8 39.8 50
    endloop
  endfacet
  facet normal 0 0 1
    outer loop
      vertex 38 38 50
      vertex 2 39.8 50
      vertex 2 38 50
    endloop
  endfacet
  facet normal 0 0 1
    outer loop
      vertex 39.8 39.8 50
      vertex 38 2 50
      vertex 39.8 0 50
    endloop
  endfacet
  facet normal 0 0 1
    outer loop
      vertex 2 0 50
      vertex 38 2 50
      vertex 2 2 50
    endloop
  endfacet
  facet normal 0 0 1
    outer loop
      vertex 38 2 50
      vertex 2 0 50
      vertex 39.8 0 50
    endloop
  endfacet
  facet normal 1 -0 0
    outer loop
      vertex 39.8 0 50
      vertex 39.8 39.8 0
      vertex 39.8 39.8 50
    endloop
  endfacet
  facet normal 1 0 0
    outer loop
      vertex 39.8 39.8 0
      vertex 39.8 0 50
      vertex 39.8 0 0
    endloop
  endfacet
  facet normal 0 0 -1
    outer loop
      vertex 0 0 0
      vertex 39.8 39.8 0
      vertex 39.8 0 0
    endloop
  endfacet
  facet normal -0 0 -1
    outer loop
      vertex 39.8 39.8 0
      vertex 0 0 0
      vertex 0 39.8 0
    endloop
  endfacet
  facet normal 0 -1 0
    outer loop
      vertex 0 0 80
      vertex 2 0 50
      vertex 2 0 80
    endloop
  endfacet
  facet normal 0 -1 0
    outer loop
      vertex 0 0 0
      vertex 2 0 50
      vertex 0 0 80
    endloop
  endfacet
  facet normal 0 -1 0
    outer loop
      vertex 39.8 0 0
      vertex 2 0 50
      vertex 0 0 0
    endloop
  endfacet
  facet normal 0 -1 0
    outer loop
      vertex 2 0 50
      vertex 39.8 0 0
      vertex 39.8 0 50
    endloop
  endfacet
  facet normal 0 1 0
    outer loop
      vertex 39.8 39.8 50
      vertex 39.8 39.8 0
      vertex 2 39.8 50
    endloop
  endfacet
  facet normal 0 1 -0
    outer loop
      vertex 2 39.8 50
      vertex 0 39.8 80
      vertex 2 39.8 80
    endloop
  endfacet
  facet normal 0 1 0
    outer loop
      vertex 2 39.8 50
      vertex 0 39.8 0
      vertex 0 39.8 80
    endloop
  endfacet
  facet normal 0 1 0
    outer loop
      vertex 0 39.8 0
      vertex 2 39.8 50
      vertex 39.8 39.8 0
    endloop
  endfacet
  facet normal 1 -0 0
    outer loop
      vertex 2 2 50
      vertex 2 38 2
      vertex 2 38 50
    endloop
  endfacet
  facet normal 1 0 0
    outer loop
      vertex 2 38 2
      vertex 2 2 50
      vertex 2 2 2
    endloop
  endfacet
  facet normal -1 0 0
    outer loop
      vertex 38 2 2
      vertex 38 38 50
      vertex 38 38 2
    endloop
  endfacet
  facet normal -1 -0 0
    outer loop
      vertex 38 38 50
      vertex 38 2 2
      vertex 38 2 50
    endloop
  endfacet
  facet normal 0 -1 0
    outer loop
      vertex 2 38 2
      vertex 38 38 50
      vertex 2 38 50
    endloop
  endfacet
  facet normal 0 -1 -0
    outer loop
      vertex 38 38 50
      vertex 2 38 2
      vertex 38 38 2
    endloop
  endfacet
  facet normal -0 0 1
    outer loop
      vertex 2 38 2
      vertex 38 2 2
      vertex 38 38 2
    endloop
  endfacet
  facet normal 0 0 1
    outer loop
      vertex 38 2 2
      vertex 2 38 2
      vertex 2 2 2
    endloop
  endfacet
  facet normal 0 1 -0
    outer loop
      vertex 38 2 2
      vertex 2 2 50
      vertex 38 2 50
    endloop
  endfacet
  facet normal 0 1 0
    outer loop
      vertex 2 2 50
      vertex 38 2 2
      vertex 2 2 2
    endloop
  endfacet
  facet normal -0 0 1
    outer loop
      vertex 0 39.8 80
      vertex 2 0 80
      vertex 2 39.8 80
    endloop
  endfacet
  facet normal 0 0 1
    outer loop
      vertex 2 0 80
      vertex 0 39.8 80
      vertex 0 0 80
    endloop
  endfacet
  facet normal 1 0 0
    outer loop
      vertex 2 39.8 80
      vertex 2 38 50
      vertex 2 39.8 50
    endloop
  endfacet
  facet normal 1 0 0
    outer loop
      vertex 2 39.8 80
      vertex 2 2 50
      vertex 2 38 50
    endloop
  endfacet
  facet normal 1 -0 0
    outer loop
      vertex 2 0 80
      vertex 2 2 50
      vertex 2 39.8 80
    endloop
  endfacet
  facet normal 1 0 0
    outer loop
      vertex 2 2 50
      vertex 2 0 80
      vertex 2 0 50
    endloop
  endfacet
endsolid OpenSCAD_Model
